<?xml version="1.0" encoding="UTF-8"?>
<svg width="94px" height="40px" viewBox="0 0 94 40" version="1.1" xmlns="http://www.w3.org/2000/svg" xmlns:xlink="http://www.w3.org/1999/xlink">
    <title>glasseson big</title>
    <g id="Page-1" stroke="none" stroke-width="1" fill="none" fill-rule="evenodd">
        <g id="9-copy" transform="translate(-32.000000, -15.000000)">
            <g id="glasseson-big" transform="translate(32.000000, 15.000000)">
                <path d="M71.260798,30.8166665 C69.8858158,30.9593479 67.4162423,31.0056542 64.7874345,30.1112185 C61.5874602,28.0303278 58.6678768,24.0994992 58.0189683,16.7608141 C57.9123794,14.8774488 57.9582458,11.7129899 61.4074563,9.36120718 C63.6238993,8.56763245 66.6753125,8.08257364 70.8715106,8.14132479 C71.8761,8.19805005 81.0617828,8.33870553 83.5377026,14.6505478 C83.5920788,18.4553363 82.3552727,29.7458326 71.260798,30.8166665 M36.7281635,19.3708993 C33.9069476,31.1778559 24.6353014,31.6565476 21.3934993,31.4192276 C19.6145179,31.3017253 18.0804457,30.9153569 16.7578205,30.3358042 C12.2078166,26.5330415 11.2094292,19.9167352 11.1110617,17.7267352 C10.9561544,14.7178366 11.8352603,12.5676311 13.218608,11.0285245 C16.5778165,9.28784059 20.4705464,9.10102349 21.1045988,9.04632414 C35.744488,8.39745668 36.6172476,14.7975704 36.7490774,17.8631941 C36.7552795,18.381825 36.7490774,18.8836699 36.7281635,19.3708993 M93.9185078,6.41540104 C93.4726807,6.20745667 92.1395264,5.55858922 90.1554443,4.80263838 C90.090539,4.02787559 90.0423649,3.4756726 90.0423649,3.4756726 C87.8762596,2.64838107 65.3798033,-6.59262597 49.7249397,8.9602233 C49.4361834,8.94980438 49.1221861,8.94546316 48.7685245,8.95183028 C48.2181278,8.9602233 47.7597523,8.98757298 47.3515702,9.02736748 C47.1820954,9.01477795 47.0042549,9.00218841 46.8137219,8.99176949 C45.6020125,8.9244806 44.8318033,8.98337647 44.0385166,9.05269126 C41.4936529,7.01796216 38.8564796,5.53760666 36.2007,4.49412245 C21.0733,-3.88602097 3.67926361,3.87680119 1.79773184,4.6619829 C1.79773184,4.6619829 1.59263118,8.4017979 1.50479271,10.0374243 C1.59681396,10.0626034 1.68681594,10.0961755 1.77047163,10.1382853 C0.876942363,10.633763 0.267842429,11.0053713 0,11.1649835 C0,11.1649835 0.316016565,14.8962607 0.454048447,16.5298612 C1.87518547,16.7208748 2.58265295,18.619145 2.67467421,19.7069096 C3.05977883,21.4747985 6.24518543,40.624492 22.8941093,39.9843069 C27.3121391,39.7342528 30.6733669,38.2329147 33.2309231,36.0680938 C43.8272139,30.2307467 44.5659801,14.037423 44.5617973,13.7183434 C44.6874251,12.8363526 45.8845668,12.3934036 46.9999279,12.1750403 C48.1950503,12.254774 49.6076775,12.5570675 49.8358556,13.4873906 C49.8462405,13.613286 50.2335086,16.2863189 51.413775,19.7425076 C52.711592,27.0769962 56.8575966,38.7746988 70.0134629,39.1191021 C74.496398,39.1547001 77.9601761,37.789821 80.6390331,35.7384506 C91.0009437,30.8102994 91.9322622,16.7042335 92.1059199,15.1819129 C92.0891887,14.0899517 92.6041039,12.1309046 94,11.7990908 C93.9749033,10.1592678 93.9185078,6.41540104 93.9185078,6.41540104" id="white" fill="#FFFFFF"></path>
                <path d="M83.1105512,18.8685443 C82.8471346,22.0488198 80.3764389,34.4052174 68.7390753,33.8831636 C65.2591657,33.7530901 54.9552321,32.0089024 54.6804873,17.0167197 C54.7203511,13.9068335 55.3954547,7.39905153 69.9629515,7.60640661 C71.1637411,7.67371635 84.0942408,7.86494056 83.1105512,18.8685443 M36.5490514,16.0010611 C34.6747356,30.8728488 24.2463351,31.45576 20.7731651,31.1961996 C9.14985414,30.4154652 8.01359225,17.8571383 8.09145573,14.6664511 C8.28848044,3.61856079 21.1621957,4.87295636 22.3629853,4.9402661 C36.8656676,6.36110298 36.8417206,12.9052527 36.5490514,16.0010611 M50.2695141,9.11948277 C48.7338971,8.87517332 47.9850885,8.57587225 46.0455279,8.46706216 C44.1347897,8.36015845 43.3297702,8.57235279 41.7770893,8.64376858 C25.7337713,-6.98382404 3.43126202,3.16997579 1.2918088,4.0794639 C1.2918088,4.0794639 1.0887615,7.86919324 1,9.527154 C2.37272022,9.92074737 2.80735043,11.9247887 2.7481283,13.0301937 C2.8824894,14.8589951 3.37791908,34.5256124 19.8567277,36.2403245 C38.7415608,37.8523856 41.5234236,13.3808203 41.5445026,12.9862004 C41.8565301,11.4990803 45.1095888,11.4832427 45.8816274,11.5265028 C46.6536661,11.5697628 49.8856457,11.9488384 50.0369274,13.4619146 C50.0157049,13.8565345 50.1674168,38.4923414 69.1114721,38.9992909 C85.6747403,39.1353768 88.2677519,19.6417998 88.5967,17.8389544 C88.6559221,16.7336961 89.3017732,14.7900722 90.7081912,14.5520685 C90.7970961,12.8942544 91,9.10452505 91,9.10452505 C88.9703873,7.96143252 67.8860185,-4.62255709 50.2695141,9.11948277" id="pink" fill-opacity="0.7" fill="#F9034A"></path>
                <path d="M83.0614977,14.1253441 C83.2334828,17.2701033 82.4680845,29.6915552 70.8693449,30.8157791 C67.4045404,31.1774004 56.9602096,30.9202571 54.6470886,16.3086741 C54.2630985,13.2640516 54.0460731,6.81000194 68.5047288,4.96673194 C69.7031739,4.8638457 82.5380834,3.23459645 83.0614977,14.1253441 M36.5480573,17.862676 C36.7160261,32.6584703 26.4650531,34.692608 22.9894906,34.9267429 C11.3692349,35.7962836 8.53413405,23.6840694 8.17682385,20.5552278 C6.86807302,9.73191336 19.7913419,9.14947014 20.9899305,9.04643919 C35.5494248,8.39829927 36.4165224,14.7964923 36.5480573,17.862676 M49.2025188,9.21111507 C47.6480545,9.18796204 46.8657302,9.00071198 44.9295707,9.16683491 C43.0222428,9.33064254 42.2536888,9.6511672 40.7254741,9.93898821 C22.7056219,-3.07879864 1.99554378,9.97559892 0,11.164796 C0,11.164796 0.314851826,14.8966291 0.452554675,16.5292066 C1.8658736,16.7209426 2.56930565,18.6183328 2.66110755,19.7066695 C3.04308952,21.4749816 6.21111568,40.62311 22.7683054,39.984376 C41.6945579,38.907471 41.1189313,14.6037434 41.0862268,14.2149173 C41.1928031,12.7180744 44.4130416,12.2456081 45.1837472,12.1794772 C45.9543094,12.1133464 49.2073958,12.0299955 49.5632716,13.4870442 C49.595976,13.8757255 53.1000832,37.9280982 71.9346772,35.7628565 C88.3604755,33.5695417 88.2754153,14.1567454 88.3557419,12.3487837 C88.26394,11.2603023 88.6391803,9.27044469 90,8.840522 C89.8622972,7.2077998 89.5474453,3.47596671 89.5474453,3.47596671 C87.3813508,2.64404967 64.7823052,-6.69153837 49.2025188,9.21111507" id="yellow" fill-opacity="0.7" fill="#F1CA00"></path>
                <path d="M86.7080639,15.7503837 C86.6622767,18.855006 85.0387684,31.01757 73.3829811,31.3182889 C69.8994212,31.4336976 59.4915148,30.4562187 58.1936842,15.9261359 C58.0210133,12.905538 58.250667,6.54336636 72.8111433,5.73365098 C74.0145288,5.71553367 86.9391529,5.0036803 86.7080639,15.7503837 M40.0193196,16.1988941 C39.1632854,30.7612172 28.789827,32.0503994 25.3042577,32.0398472 C13.6447385,32.0884885 11.652636,19.9802764 11.5125472,16.8785073 C10.9550628,6.14364429 23.8953321,6.46761603 25.0990047,6.44949872 C39.6772791,6.8219735 40.100129,13.1743019 40.0193196,16.1988941 M53.2498138,8.56851075 C51.6997947,8.43798052 50.9317466,8.19945971 48.9874408,8.22856153 C47.0722723,8.25737804 46.2828377,8.51929443 44.7375552,8.69633051 C27.650601,-5.35585477 6.0743472,6.04549697 4,7.07647178 C4,7.07647178 4.05612163,10.7682661 4.08066587,12.3832745 C5.47810874,12.670013 6.04908529,14.5847417 6.06544812,15.661509 C6.32438269,17.4268769 8.16189949,36.4775853 24.7335682,36.9979943 C43.7005252,37.251922 44.8075996,13.3109664 44.8017147,12.9263658 C45.0117044,11.4618595 48.2590079,11.2204855 49.0327974,11.2089304 C49.8065869,11.1972326 53.0596318,11.3410298 53.3139733,12.7986887 C53.3198582,13.1832892 55.1533561,37.0801641 74.1040937,36.2574671 C90.6522229,35.2400446 91.9105818,16.142973 92.1159783,14.3704724 C92.0996155,13.293705 92.6117433,11.3628562 94,11.0343195 C93.9754558,9.41916839 93.9193341,5.72751678 93.9193341,5.72751678 C91.8147013,4.75902529 69.9021484,-5.98981797 53.2498138,8.56851075" id="blue" fill-opacity="0.73" fill="#AADEF1"></path>
            </g>
        </g>
    </g>
</svg>